<svg width="768" height="240" viewBox="0 0 768 240" fill="none" xmlns="http://www.w3.org/2000/svg">
<mask id="mask0_103_3865" style="mask-type:alpha" maskUnits="userSpaceOnUse" x="0" y="0" width="768" height="240">
<path d="M373.072 208C323.768 208 288 173.951 288 119.883C288 65.814 322.643 32 371.954 32C403.132 32 426.769 43.7333 441.883 66.2833L420.578 83.766C408.884 69.0406 396.043 59.61 372.882 59.61C342.186 59.61 322.212 83.0766 322.212 119.883C322.212 156.689 342.376 180.39 373.072 180.39C401.729 180.39 417.092 164.257 419.116 137.123H365.99V109.521H453.35C453.996 114.478 454.302 119.474 454.263 124.473C454.263 174.868 424.686 208 373.072 208Z" fill="#61E22A"/>
<path d="M471.6 32H505.826V208H471.6V32Z" fill="#61E22A"/>
<path d="M635.188 90.667V204.774H606.421V187.115C602.767 198.526 589.67 208 570.134 208C543.092 208 524.821 194.221 524.821 166.662V90.667H557.03V158.053C557.03 175.279 566.692 182.165 580.644 182.165C590.956 182.165 601.685 174.832 602.979 164.514V90.667H635.188Z" fill="#61E22A"/>
<path d="M765.077 183.28C757.768 197.316 736.675 208 712.455 208C677.578 208 652.729 184.534 652.729 149.546C652.729 114.559 675.911 90.667 710.781 90.667C745.65 90.667 768 114.552 768 152.054C767.953 154.59 767.672 157.116 767.159 159.6H684.47C686.765 175.316 697.421 183.698 713.5 183.698C727.276 183.698 739.182 176.57 744.196 168.818L765.077 183.28ZM736.259 140.116C735.002 128.382 726.231 115.6 710.781 115.6C695.33 115.6 686.144 127.752 685.515 140.116H736.259Z" fill="#61E22A"/>
<path d="M120 0C96.2663 0 73.0655 7.03788 53.3316 20.2236C33.5977 33.4094 18.217 52.1509 9.13451 74.078C0.0519981 96.0051 -2.32441 120.133 2.30582 143.411C6.93604 166.689 18.3649 188.07 35.1472 204.853C51.9295 221.635 73.3115 233.064 96.5892 237.694C119.867 242.324 143.995 239.948 165.922 230.866C187.849 221.783 206.591 206.402 219.776 186.668C232.962 166.934 240 143.734 240 120V0H120ZM170.907 170.913C162.534 179.286 152.226 185.464 140.895 188.9C129.564 192.337 117.561 192.926 105.948 190.616C94.3347 188.306 83.4708 183.167 74.3182 175.655C65.1657 168.143 58.007 158.49 53.4762 147.551C48.9455 136.611 47.1826 124.723 48.3436 112.94C49.5047 101.156 53.5539 89.8411 60.1326 79.9963C66.7112 70.1516 75.6163 62.0812 86.059 56.5001C96.5016 50.919 108.16 47.9994 120 48H192V120C192.026 129.46 190.174 138.83 186.554 147.57C182.933 156.309 177.615 164.243 170.907 170.913Z" fill="#61E22A"/>
</mask>
<g mask="url(#mask0_103_3865)">
<rect x="-10" y="-40" width="796" height="320" fill="url(#paint0_linear_103_3865)"/>
</g>
<defs>
<linearGradient id="paint0_linear_103_3865" x1="-10" y1="280" x2="786" y2="280" gradientUnits="userSpaceOnUse">
<stop stop-color="#2CC8AA"/>
<stop offset="1" stop-color="#3DD666"/>
</linearGradient>
</defs>
</svg>
