<svg width="27" height="24" viewBox="0 0 27 24" fill="none" xmlns="http://www.w3.org/2000/svg">
<path d="M10.5806 10.6667C13.5024 10.6667 15.8709 8.27885 15.8709 5.33333C15.8709 2.38781 13.5024 0 10.5806 0C7.65888 0 5.29034 2.38781 5.29034 5.33333C5.29034 8.27885 7.65888 10.6667 10.5806 10.6667Z" fill="#9E9E9E"/>
<path d="M11.0435 13.3467C7.43285 13.2134 0 15.0267 0 18.6667V21.3334H12.6173C9.35058 17.6534 10.9906 13.48 11.0435 13.3467Z" fill="#9E9E9E"/>
<path d="M23.0524 18.6933C23.5286 17.9066 23.8063 16.9866 23.8063 16C23.8063 13.0533 21.4389 10.6666 18.516 10.6666C15.5931 10.6666 13.2257 13.0533 13.2257 16C13.2257 18.9466 15.5931 21.3333 18.516 21.3333C19.4947 21.3333 20.4073 21.04 21.1876 20.5733L24.5866 24L26.4514 22.12L23.0524 18.6933ZM18.516 18.6666C17.0612 18.6666 15.8709 17.4666 15.8709 16C15.8709 14.5333 17.0612 13.3333 18.516 13.3333C19.9708 13.3333 21.1611 14.5333 21.1611 16C21.1611 17.4666 19.9708 18.6666 18.516 18.6666Z" fill="#9E9E9E"/>
</svg>
