<svg width="34" height="31" viewBox="0 0 34 31" fill="none" xmlns="http://www.w3.org/2000/svg">
<path d="M24.5 0C21.6 0 18.8166 1.35 17 3.48333C15.1833 1.35 12.4 0 9.49998 0C4.36665 0 0.333313 4.03333 0.333313 9.16667C0.333313 15.4667 5.99998 20.6 14.5833 28.4L17 30.5833L19.4166 28.3833C28 20.6 33.6666 15.4667 33.6666 9.16667C33.6666 4.03333 29.6333 0 24.5 0ZM17.1666 25.9167L17 26.0833L16.8333 25.9167C8.89998 18.7333 3.66665 13.9833 3.66665 9.16667C3.66665 5.83333 6.16665 3.33333 9.49998 3.33333C12.0666 3.33333 14.5666 4.98333 15.45 7.26667H18.5666C19.4333 4.98333 21.9333 3.33333 24.5 3.33333C27.8333 3.33333 30.3333 5.83333 30.3333 9.16667C30.3333 13.9833 25.1 18.7333 17.1666 25.9167Z" fill="white"/>
</svg>
