<svg width="32" height="32" viewBox="0 0 32 32" fill="none" xmlns="http://www.w3.org/2000/svg">
<g clip-path="url(#clip0_602_6894)">
<path d="M26.0948 14.1146L15.2525 24.9569C13.1689 27.0405 9.7936 27.0405 7.70999 24.9569C5.62638 22.8733 5.62638 19.498 7.70999 17.4144L19.4951 5.6293C20.7962 4.32822 22.9081 4.32822 24.2091 5.6293C25.5102 6.93037 25.5102 9.04227 24.2091 10.3433L14.3097 20.2428C13.7911 20.7614 12.9426 20.7614 12.424 20.2428C11.9055 19.7243 11.9055 18.8758 12.424 18.3572L21.3807 9.40053L19.9665 7.98632L11.0098 16.943C9.70874 18.2441 9.70874 20.356 11.0098 21.6571C12.3109 22.9581 14.4228 22.9581 15.7239 21.657L25.6234 11.7576C27.707 9.67395 27.707 6.29869 25.6234 4.21508C23.5398 2.13148 20.1645 2.13148 18.0809 4.21508L6.29578 16.0002C3.42964 18.8663 3.42964 23.505 6.29578 26.3711C9.16191 29.2372 13.8005 29.2372 16.6667 26.3711L27.509 15.5288L26.0948 14.1146Z" fill="#6F757E"/>
</g>
<defs>
<clipPath id="clip0_602_6894">
<rect width="32" height="32" fill="white"/>
</clipPath>
</defs>
</svg>
