<svg width="4" height="16" viewBox="0 0 4 16" fill="none" xmlns="http://www.w3.org/2000/svg">
<path d="M2.38498e-08 14C1.07324e-08 15.1 0.9 16 2 16C3.1 16 4 15.1 4 14C4 12.9 3.1 12 2 12C0.9 12 3.69671e-08 12.9 2.38498e-08 14ZM1.66948e-07 2C1.53831e-07 3.1 0.9 4 2 4C3.1 4 4 3.1 4 2C4 0.9 3.1 3.69671e-08 2 2.38498e-08C0.9 1.07324e-08 1.80066e-07 0.9 1.66948e-07 2ZM9.5399e-08 8C8.22817e-08 9.1 0.9 10 2 10C3.1 10 4 9.1 4 8C4 6.9 3.1 6 2 6C0.9 6 1.08516e-07 6.9 9.5399e-08 8Z" fill="#323232"/>
</svg>
