<svg width="96" height="96" viewBox="0 0 96 96" fill="none" xmlns="http://www.w3.org/2000/svg">
<path d="M48 8C25.9088 8 8 25.9088 8 48C8 70.0912 25.9088 88 48 88C70.0912 88 88 70.0912 88 48V8H48ZM64.9712 64.9712C62.1803 67.7618 58.7443 69.8212 54.9675 70.9668C51.1907 72.1123 47.1896 72.3088 43.3187 71.5388C39.4479 70.7687 35.8266 69.056 32.7758 66.5522C29.7249 64.0484 27.3386 60.8309 25.8282 57.1846C24.3179 53.5383 23.73 49.5758 24.1168 45.648C24.5036 41.7203 25.853 37.9486 28.0456 34.6669C30.2382 31.3853 33.2062 28.695 36.6869 26.8344C40.1675 24.9737 44.0533 24.0002 48 24H72V48C72.0089 51.1531 71.3923 54.2766 70.1858 57.1897C68.9793 60.1029 67.2069 62.7477 64.9712 64.9712Z" fill="url(#paint0_linear_378_3466)"/>
<path d="M81 47.5C81 65.4493 66.4493 80 48.5 80C30.5507 80 16 65.4493 16 47.5C16 29.5507 30.5507 15 48.5 15C66.4493 15 81 29.5507 81 47.5Z" fill="white"/>
<path d="M48 8C25.92 8 8 25.92 8 48C8 70.08 25.92 88 48 88C70.08 88 88 70.08 88 48C88 25.92 70.08 8 48 8ZM48 20C54.64 20 60 25.36 60 32C60 38.64 54.64 44 48 44C41.36 44 36 38.64 36 32C36 25.36 41.36 20 48 20ZM48 76.8C38 76.8 29.16 71.68 24 63.92C24.12 55.96 40 51.6 48 51.6C55.96 51.6 71.88 55.96 72 63.92C66.84 71.68 58 76.8 48 76.8Z" fill="url(#paint1_linear_378_3466)"/>
<defs>
<linearGradient id="paint0_linear_378_3466" x1="0" y1="96" x2="96" y2="96" gradientUnits="userSpaceOnUse">
<stop stop-color="#61E22A"/>
<stop offset="1" stop-color="#22B793"/>
</linearGradient>
<linearGradient id="paint1_linear_378_3466" x1="0" y1="96" x2="96" y2="96" gradientUnits="userSpaceOnUse">
<stop stop-color="#61E22A"/>
<stop offset="1" stop-color="#22B793"/>
</linearGradient>
</defs>
</svg>
