<svg width="40" height="40" viewBox="0 0 40 40" fill="none" xmlns="http://www.w3.org/2000/svg">
<path fill-rule="evenodd" clip-rule="evenodd" d="M21.2 6.20001C21.2 5.64773 20.7523 5.20001 20.2 5.20001C19.6477 5.20001 19.2 5.64773 19.2 6.20001V9.40001C19.2 9.9523 19.6477 10.4 20.2 10.4C20.7523 10.4 21.2 9.9523 21.2 9.40001V6.20001ZM9.70709 9.89291C9.31657 9.50238 8.68341 9.50238 8.29288 9.89291C7.90236 10.2834 7.90236 10.9166 8.29288 11.3071L9.98994 13.0042C10.3805 13.3947 11.0136 13.3947 11.4042 13.0042C11.7947 12.6137 11.7947 11.9805 11.4042 11.59L9.70709 9.89291ZM31.8042 9.89291C32.1947 10.2834 32.1947 10.9166 31.8042 11.3071L30.1071 13.0042C29.7166 13.3947 29.0834 13.3947 28.6929 13.0042C28.3024 12.6137 28.3024 11.9805 28.6929 11.59L30.39 9.89291C30.7805 9.50238 31.4136 9.50238 31.8042 9.89291ZM5.79999 19.2C5.2477 19.2 4.79999 19.6477 4.79999 20.2C4.79999 20.7523 5.2477 21.2 5.79999 21.2H8.19999C8.75227 21.2 9.19999 20.7523 9.19999 20.2C9.19999 19.6477 8.75227 19.2 8.19999 19.2H5.79999ZM35.6 20.2C35.6 20.7523 35.1523 21.2 34.6 21.2H32.2C31.6477 21.2 31.2 20.7523 31.2 20.2C31.2 19.6477 31.6477 19.2 32.2 19.2H34.6C35.1523 19.2 35.6 19.6477 35.6 20.2ZM13.1197 18.3306L12.4623 29.2H27.9377L27.2813 18.3471C26.8947 16.8048 24.9833 13.6 20.1093 13.6C15.2326 13.6 13.4457 16.8074 13.1197 18.3306ZM11.1441 18.0092C11.5789 15.7729 14.0194 11.6 20.1093 11.6C26.1875 11.6 28.7454 15.7566 29.2494 17.9788L29.2675 18.0583L29.2724 18.1396L29.9534 29.4H31C31.6627 29.4 32.2 29.9373 32.2 30.6V33.8C32.2 34.4628 31.6627 35 31 35H9.39999C8.73725 35 8.19999 34.4628 8.19999 33.8V30.6C8.19999 29.9373 8.73725 29.4 9.39999 29.4H10.4465L11.1276 18.1396L11.1316 18.0739L11.1441 18.0092ZM10.2 31.4V33H30.2V31.4H10.2Z" fill="black"/>
</svg>
