<svg width="100" height="100" viewBox="0 0 100 100" fill="none" xmlns="http://www.w3.org/2000/svg">
<path d="M50 0C22.386 0 0 22.386 0 50C0 77.614 22.386 100 50 100C77.614 100 100 77.614 100 50V0H50ZM71.214 71.214C67.7254 74.7023 63.4304 77.2765 58.7094 78.7085C53.9884 80.1404 48.987 80.386 44.1484 79.4235C39.3098 78.4609 34.7833 76.32 30.9697 73.1902C27.1561 70.0605 24.1733 66.0386 22.2853 61.4807C20.3973 56.9228 19.6625 51.9697 20.146 47.0601C20.6295 42.1504 22.3163 37.4357 25.057 33.3337C27.7977 29.2316 31.5078 25.8687 35.8586 23.543C40.2094 21.2172 45.0666 20.0003 50 20H80V50C80.0112 53.9414 79.2404 57.8458 77.7323 61.4872C76.2241 65.1286 74.0086 68.4347 71.214 71.214Z" fill="white"/>
</svg>
