<svg width="36" height="36" viewBox="0 0 36 36" fill="none" xmlns="http://www.w3.org/2000/svg">
<path d="M18 0C8.05896 0 0 8.05896 0 18C0 27.941 8.05896 36 18 36C27.941 36 36 27.941 36 18V0H18ZM25.637 25.637C24.3811 26.8928 22.8349 27.8195 21.1354 28.335C19.4358 28.8505 17.6353 28.939 15.8934 28.5924C14.1515 28.2459 12.522 27.4752 11.1491 26.3485C9.77621 25.2218 8.70238 23.7739 8.02271 22.1331C7.34304 20.4922 7.07851 18.7091 7.25256 16.9416C7.42661 15.1741 8.03386 13.4769 9.02052 12.0001C10.0072 10.5234 11.3428 9.31274 12.9091 8.47546C14.4754 7.63818 16.224 7.20009 18 7.2H28.8V18C28.804 19.4189 28.5265 20.8245 27.9836 22.1354C27.4407 23.4463 26.6431 24.6365 25.637 25.637Z" fill="url(#paint0_linear_6_440)"/>
<defs>
<linearGradient id="paint0_linear_6_440" x1="0" y1="36" x2="36" y2="36" gradientUnits="userSpaceOnUse">
<stop stop-color="#2CC8AA"/>
<stop offset="1" stop-color="#3DD666"/>
</linearGradient>
</defs>
</svg>
