<svg width="22" height="24" viewBox="0 0 22 24" fill="none" xmlns="http://www.w3.org/2000/svg">
<path d="M19.557 2.4H14.5676C14.0663 1.008 12.7533 0 11.2016 0C9.64984 0 8.33685 1.008 7.83552 2.4H2.84613C1.53313 2.4 0.458862 3.48 0.458862 4.8V21.6C0.458862 22.92 1.53313 24 2.84613 24H19.557C20.87 24 21.9443 22.92 21.9443 21.6V4.8C21.9443 3.48 20.87 2.4 19.557 2.4ZM11.2016 2.4C11.8581 2.4 12.3952 2.94 12.3952 3.6C12.3952 4.26 11.8581 4.8 11.2016 4.8C10.5451 4.8 10.0079 4.26 10.0079 3.6C10.0079 2.94 10.5451 2.4 11.2016 2.4ZM13.5888 19.2H5.2334V16.8H13.5888V19.2ZM17.1697 14.4H5.2334V12H17.1697V14.4ZM17.1697 9.6H5.2334V7.2H17.1697V9.6Z" fill="#9E9E9E"/>
</svg>
