<svg width="24" height="24" viewBox="0 0 24 24" fill="none" xmlns="http://www.w3.org/2000/svg">
<path d="M17.0617 15.0943H15.9834L15.6012 14.7238C16.9388 13.1595 17.7441 11.1286 17.7441 8.91938C17.7441 3.99314 13.7722 0 8.87206 0C3.97195 0 0 3.99314 0 8.91938C0 13.8456 3.97195 17.8388 8.87206 17.8388C11.0696 17.8388 13.0897 17.0292 14.6457 15.6844L15.0143 16.0686V17.1527L21.8389 24L23.8727 21.9554L17.0617 15.0943V15.0943ZM8.87206 15.0943C5.47338 15.0943 2.72987 12.3362 2.72987 8.91938C2.72987 5.50257 5.47338 2.74443 8.87206 2.74443C12.2707 2.74443 15.0143 5.50257 15.0143 8.91938C15.0143 12.3362 12.2707 15.0943 8.87206 15.0943Z" fill="#ffffff"/>
</svg>
