<svg width="25" height="24" viewBox="0 0 25 24" fill="none" xmlns="http://www.w3.org/2000/svg">
<path d="M17.9237 15.0943H16.8454L16.4632 14.7238C17.8009 13.1595 18.6062 11.1286 18.6062 8.91938C18.6062 3.99314 14.6342 0 9.73412 0C4.83402 0 0.862061 3.99314 0.862061 8.91938C0.862061 13.8456 4.83402 17.8388 9.73412 17.8388C11.9317 17.8388 13.9518 17.0292 15.5078 15.6844L15.8763 16.0686V17.1527L22.701 24L24.7347 21.9554L17.9237 15.0943ZM9.73412 15.0943C6.33544 15.0943 3.59193 12.3362 3.59193 8.91938C3.59193 5.50257 6.33544 2.74443 9.73412 2.74443C13.1328 2.74443 15.8763 5.50257 15.8763 8.91938C15.8763 12.3362 13.1328 15.0943 9.73412 15.0943Z" fill="#9E9E9E"/>
</svg>
